<?xml version="1.0" encoding="utf-8"?>
<svg xmlns="http://www.w3.org/2000/svg" xmlns:xlink="http://www.w3.org/1999/xlink" style="margin: auto; background: none; display: block; shape-rendering: auto;" width="194px" height="194px" viewBox="0 0 100 100" preserveAspectRatio="xMidYMid">
<g transform="rotate(0 50 50)">
  <rect x="48.5" y="33" rx="1.5" ry="1.56" width="3" height="12" fill="#ff752f">
    <animate attributeName="opacity" values="1;0" keyTimes="0;1" dur="2.0408163265306123s" begin="-1.7492711370262393s" repeatCount="indefinite"></animate>
  </rect>
</g><g transform="rotate(51.42857142857143 50 50)">
  <rect x="48.5" y="33" rx="1.5" ry="1.56" width="3" height="12" fill="#ff752f">
    <animate attributeName="opacity" values="1;0" keyTimes="0;1" dur="2.0408163265306123s" begin="-1.457725947521866s" repeatCount="indefinite"></animate>
  </rect>
</g><g transform="rotate(102.85714285714286 50 50)">
  <rect x="48.5" y="33" rx="1.5" ry="1.56" width="3" height="12" fill="#ff752f">
    <animate attributeName="opacity" values="1;0" keyTimes="0;1" dur="2.0408163265306123s" begin="-1.1661807580174928s" repeatCount="indefinite"></animate>
  </rect>
</g><g transform="rotate(154.28571428571428 50 50)">
  <rect x="48.5" y="33" rx="1.5" ry="1.56" width="3" height="12" fill="#ff752f">
    <animate attributeName="opacity" values="1;0" keyTimes="0;1" dur="2.0408163265306123s" begin="-0.8746355685131196s" repeatCount="indefinite"></animate>
  </rect>
</g><g transform="rotate(205.71428571428572 50 50)">
  <rect x="48.5" y="33" rx="1.5" ry="1.56" width="3" height="12" fill="#ff752f">
    <animate attributeName="opacity" values="1;0" keyTimes="0;1" dur="2.0408163265306123s" begin="-0.5830903790087464s" repeatCount="indefinite"></animate>
  </rect>
</g><g transform="rotate(257.14285714285717 50 50)">
  <rect x="48.5" y="33" rx="1.5" ry="1.56" width="3" height="12" fill="#ff752f">
    <animate attributeName="opacity" values="1;0" keyTimes="0;1" dur="2.0408163265306123s" begin="-0.2915451895043732s" repeatCount="indefinite"></animate>
  </rect>
</g><g transform="rotate(308.57142857142856 50 50)">
  <rect x="48.5" y="33" rx="1.5" ry="1.56" width="3" height="12" fill="#ff752f">
    <animate attributeName="opacity" values="1;0" keyTimes="0;1" dur="2.0408163265306123s" begin="0s" repeatCount="indefinite"></animate>
  </rect>
</g>
<!-- [ldio] generated by https://loading.io/ --></svg>
